<?xml version="1.0" encoding="UTF-8" standalone="no"?>
<svg
   version="1.1"
   id="svg2"
   xml:space="preserve"
   width="124.03529"
   height="150.38774"
   viewBox="0 0 124.03528 150.38775"
   xmlns="http://www.w3.org/2000/svg"
   xmlns:svg="http://www.w3.org/2000/svg"
   xmlns:rdf="http://www.w3.org/1999/02/22-rdf-syntax-ns#"
   xmlns:cc="http://creativecommons.org/ns#"
   xmlns:dc="http://purl.org/dc/elements/1.1/"><metadata
     id="metadata8"><rdf:RDF><cc:Work
         rdf:about=""><dc:format>image/svg+xml</dc:format><dc:type
           rdf:resource="http://purl.org/dc/dcmitype/StillImage" /></cc:Work></rdf:RDF></metadata><defs
     id="defs6"><clipPath
       clipPathUnits="userSpaceOnUse"
       id="clipPath910"><path
         d="m 43.513,528.025 h 108 v 115.2 h -108 z"
         id="path908" /></clipPath></defs><g
     id="g10"
     transform="matrix(1.3333333,0,0,-1.3333333,-67.55402,854.64035)"><circle
       style="fill:#971e1f;fill-opacity:1;stroke-width:0.754246"
       id="path354091"
       cx="97.178749"
       cy="-574.7027"
       r="46.513233"
       transform="scale(1,-1)" /><g
       id="g904"
       transform="translate(0,-3)"><g
         id="g906"
         clip-path="url(#clipPath910)"><g
           id="g916"
           transform="translate(63.6247,594.5986)"><path
             d="M 0,0 0.57,-0.247 C 0.922,-0.4 0.918,-0.608 0.751,-0.991 l -1.213,-2.796 -1.42,0.615 1.215,2.797 C -0.501,0.008 -0.352,0.153 0,0 M 2.541,-5.092 0.46,-4.188 1.916,-0.832 C 2.271,-0.014 2.148,0.495 1.402,0.819 L 0.211,1.336 C -0.534,1.66 -0.991,1.403 -1.346,0.584 L -3.334,-3.993 2.01,-6.314 Z"
             style="fill:#ffffff;fill-opacity:1;fill-rule:nonzero;stroke:none"
             id="path918" /></g><g
           id="g920"
           transform="translate(73.7522,602.7333)"><path
             d="m 0,0 -3.059,-3.261 -2.692,2.526 3.058,3.261 z m -2.198,-3.944 2.935,3.129 C 1.486,-0.016 1.52,0.432 0.721,1.181 l -2.24,2.101 C -2.317,4.032 -2.763,3.97 -3.512,3.171 l -2.936,-3.13 c -0.749,-0.798 -0.782,-1.246 0.017,-1.996 l 2.239,-2.101 c 0.799,-0.749 1.244,-0.687 1.994,0.112"
             style="fill:#ffffff;fill-opacity:1;fill-rule:nonzero;stroke:none"
             id="path922" /></g><g
           id="g924"
           transform="translate(82.256,612.1749)"><path
             d="m 0,0 0.314,-0.626 c 0.172,-0.343 0.036,-0.5 -0.337,-0.687 L -2.749,-2.68 -3.477,-1.227 -0.752,0.14 C -0.378,0.327 -0.172,0.343 0,0 m 0.28,-2.272 0.687,0.344 c 0.797,0.4 1.028,0.87 0.665,1.596 L 1.019,0.89 C 0.654,1.616 0.139,1.712 -0.658,1.312 l -4.46,-2.237 2.612,-5.208 1.19,0.597 -0.987,1.968 1.15,0.577 3.087,-0.915 1.735,0.87 z"
             style="fill:#ffffff;fill-opacity:1;fill-rule:nonzero;stroke:none"
             id="path926" /></g><g
           id="g928"
           transform="translate(87.997,615.7654)"><path
             d="M 0,0 0.162,-1.026 2.805,-0.61 3.548,-5.339 4.886,-5.129 4.143,-0.4 6.797,0.017 6.636,1.044 Z"
             style="fill:#ffffff;fill-opacity:1;fill-rule:nonzero;stroke:none"
             id="path930" /></g><g
           id="g932"
           transform="translate(105.513,611.2622)"><path
             d="m 0,0 -4.33,0.591 0.64,4.688 -1.343,0.183 -0.787,-5.773 5.671,-0.774 z"
             style="fill:#ffffff;fill-opacity:1;fill-rule:nonzero;stroke:none"
             id="path934" /></g><g
           id="g936"
           transform="translate(111.7576,610.3327)"><path
             d="m 0,0 2.198,1.573 0.101,-2.68 z m 3.319,2.287 -1.18,0.568 -5.498,-3.82 1.221,-0.588 1.164,0.856 3.327,-1.601 0.078,-1.454 1.373,-0.66 z"
             style="fill:#ffffff;fill-opacity:1;fill-rule:nonzero;stroke:none"
             id="path938" /></g><g
           id="g940"
           transform="translate(122.4424,604.3583)"><path
             d="M 0,0 C 0.122,0.117 0.335,0.336 0.63,0.681 0.609,0.442 0.612,0.226 0.623,0.002 l 0.355,-5.582 0.64,-0.668 4.21,4.027 -0.843,0.88 -2.211,-2.115 C 2.643,-3.58 2.415,-3.831 2.087,-4.191 2.118,-3.88 2.108,-3.576 2.084,-3.272 L 1.731,2.062 1.092,2.731 -3.119,-1.296 -2.276,-2.177 Z"
             style="fill:#ffffff;fill-opacity:1;fill-rule:nonzero;stroke:none"
             id="path942" /></g><g
           id="g944"
           transform="translate(129.0496,591.6005)"><path
             d="M 0,0 -0.709,1.6 2.667,3.095 3.641,0.896 C 4.158,-0.27 3.84,-1.115 2.756,-1.594 1.435,-2.18 0.695,-1.569 0,0 m -0.882,-0.712 c 0.419,-0.949 0.833,-1.631 1.382,-2.006 0.783,-0.541 1.801,-0.609 2.802,-0.166 1.652,0.732 2.166,2.219 1.283,4.211 L 3.067,4.755 -2.259,2.395 Z"
             style="fill:#ffffff;fill-opacity:1;fill-rule:nonzero;stroke:none"
             id="path946" /></g><g
           id="g948"
           transform="translate(65.2768,564.8906)"><path
             d="m 0,0 1.206,-2.389 -4.274,-2.158 0.611,-1.209 4.274,2.158 1.21,-2.4 0.928,0.469 -3.027,5.997 z"
             style="fill:#ffffff;fill-opacity:1;fill-rule:nonzero;stroke:none"
             id="path950" /></g><g
           id="g952"
           transform="translate(76.643,548.4733)"><path
             d="m 0,0 -3.287,2.667 1.422,1.754 -1.052,0.853 -3.67,-4.522 1.052,-0.855 1.579,1.947 3.287,-2.669 -1.579,-1.946 1.061,-0.86 3.67,4.523 -1.061,0.862 z"
             style="fill:#ffffff;fill-opacity:1;fill-rule:nonzero;stroke:none"
             id="path954" /></g><g
           id="g956"
           transform="translate(92.0652,543.3926)"><path
             d="m 0,0 -0.818,-3.6 -4.36,0.99 0.818,3.6 z m 0.141,1.033 -4.184,0.95 C -5.11,2.226 -5.514,2.028 -5.756,0.96 l -0.681,-2.995 c -0.242,-1.068 0.037,-1.421 1.105,-1.663 l 4.184,-0.951 c 1.068,-0.242 1.472,-0.044 1.714,1.024 l 0.68,2.995 C 1.488,0.438 1.21,0.79 0.141,1.033"
             style="fill:#ffffff;fill-opacity:1;fill-rule:nonzero;stroke:none"
             id="path958" /></g><g
           id="g960"
           transform="translate(106.4529,544.2493)"><path
             d="M 0,0 C 0.407,0.094 0.612,0.06 0.698,-0.315 L 0.855,-0.997 C 0.941,-1.371 0.772,-1.49 0.365,-1.584 l -2.97,-0.685 -0.366,1.584 z m 1.183,-2.415 c 0.869,0.2 1.204,0.601 1.022,1.394 L 1.898,0.311 C 1.715,1.102 1.237,1.317 0.368,1.116 l -4.862,-1.121 1.308,-5.677 1.298,0.299 -0.495,2.146 1.255,0.289 2.783,-1.618 1.892,0.436 -3.113,1.542 z"
             style="fill:#ffffff;fill-opacity:1;fill-rule:nonzero;stroke:none"
             id="path962" /></g><g
           id="g964"
           transform="translate(119.9517,552.6969)"><path
             d="m 0,0 1.905,-2.395 c 0.112,-0.141 0.341,-0.392 0.67,-0.752 -0.307,0.059 -0.61,0.078 -0.915,0.081 l -5.345,0.134 -0.725,-0.576 3.627,-4.559 0.955,0.758 -1.961,2.465 c -0.106,0.133 -0.305,0.365 -0.621,0.691 0.236,-0.044 0.451,-0.06 0.676,-0.07 l 5.59,-0.154 0.726,0.576 -3.628,4.56 z"
             style="fill:#ffffff;fill-opacity:1;fill-rule:nonzero;stroke:none"
             id="path966" /></g><g
           id="g968"
           transform="translate(132.8851,563.856)"><path
             d="m 0,0 -0.721,0.35 c -0.986,0.478 -1.398,0.276 -1.876,-0.709 l -1.587,-3.271 -1.128,0.547 1.667,3.433 0.599,-0.291 0.269,1.2 -0.112,0.055 C -3.794,1.753 -4.215,1.505 -4.668,0.57 L -6.112,-2.406 C -6.591,-3.391 -6.49,-3.83 -5.504,-4.308 l 0.579,-0.281 c 0.986,-0.478 1.393,-0.286 1.87,0.7 l 1.588,3.27 1.198,-0.581 -1.799,-3.708 -0.62,0.301 -0.298,-1.186 0.142,-0.069 c 0.985,-0.478 1.397,-0.276 1.874,0.709 l 1.573,3.241 C 1.081,-0.926 0.985,-0.479 0,0"
             style="fill:#ffffff;fill-opacity:1;fill-rule:nonzero;stroke:none"
             id="path970" /></g><g
           id="g972"
           transform="translate(63.9743,578.549)"><path
             d="m 0,0 h -2.06 v -0.697 h 1.112 V -1.178 H -2.06 V -2.182 H -2.674 V 0.461 H 0 Z m -1.325,5.06 c -0.055,-5.824 -5.962,-5.851 -5.962,-5.851 0,0 5.935,-0.138 5.935,-5.991 0.027,5.88 6.099,5.88 5.962,5.908 -0.138,0.027 -5.99,0.083 -5.935,5.934 m 70.511,-5.475 -0.615,-0.097 v 0.502 h -1.66 v -1.675 h 1.66 v 0.568 l 0.615,-0.129 v -0.311 c 0,-0.497 -0.158,-0.625 -0.656,-0.625 h -1.577 c -0.498,0 -0.657,0.128 -0.657,0.625 v 1.393 c 0,0.497 0.159,0.625 0.657,0.625 h 1.577 c 0.498,0 0.656,-0.128 0.656,-0.625 z M 67.754,5.06 c -0.055,-5.824 -5.962,-5.851 -5.962,-5.851 0,0 5.935,-0.138 5.935,-5.991 0.027,5.88 6.099,5.88 5.962,5.908 -0.137,0.027 -5.99,0.083 -5.935,5.934"
             style="fill:#ffffff;fill-opacity:1;fill-rule:nonzero;stroke:none"
             id="path974" /></g><g
           id="g976"
           transform="translate(81.2314,599.8196)"><path
             d="m 0,0 c -2.688,1.146 -4.083,0.705 -4.083,0.705 0,0 3.038,-1.016 2.398,-3.769 -0.465,-2.006 -0.865,-4.456 -0.948,-6.719 -0.205,-3.537 0.151,-5.989 -2.337,-9.351 l 1.348,-1.881 c 0.602,0.47 1.273,1.441 1.667,2.025 2.773,-0.647 4.155,-0.264 4.155,-0.264 0,0 -3.169,1.333 -3.036,3.627 0.156,2.715 0.29,5.133 0.395,7.202 0.371,6.303 2.615,9.427 7.139,7.243 L 8.051,0.647 C 4.243,2.558 1.652,1.597 0,0"
             style="fill:#ffffff;fill-opacity:1;fill-rule:nonzero;stroke:none"
             id="path978" /></g><g
           id="g980"
           transform="translate(71.2676,586.2208)"><path
             d="m 0,0 c -2.848,-0.652 -3.717,-1.829 -3.717,-1.829 0,0 3.054,0.963 4.155,-1.64 0.803,-1.897 1.92,-4.113 3.182,-5.994 1.913,-2.981 3.642,-4.756 3.606,-8.938 l 2.197,-0.731 c 0.21,0.735 0.182,1.916 0.158,2.62 2.623,1.106 3.516,2.228 3.516,2.228 0,0 -3.346,-0.784 -4.588,1.15 C 7.04,-10.846 5.727,-8.811 4.597,-7.075 1.19,-1.758 1.17,2.088 6.115,2.981 L 6.133,5.255 C 1.929,4.563 0.398,2.263 0,0"
             style="fill:#ffffff;fill-opacity:1;fill-rule:nonzero;stroke:none"
             id="path982" /></g><g
           id="g984"
           transform="translate(71.1999,569.362)"><path
             d="m 0,0 c -1.92,-2.202 -1.931,-3.665 -1.931,-3.665 0,0 1.905,2.575 4.325,1.117 1.764,-1.064 3.971,-2.2 6.098,-2.98 3.299,-1.287 5.741,-1.706 8.171,-5.111 l 2.206,0.7 c -0.262,0.718 -0.978,1.657 -1.412,2.213 1.472,2.436 1.535,3.869 1.535,3.869 0,0 -2.247,-2.601 -4.387,-1.766 -2.534,0.987 -4.793,1.861 -6.727,2.601 -5.881,2.299 -8.158,5.4 -4.683,9.028 L 1.873,7.856 C -1.121,4.826 -1.007,2.065 0,0"
             style="fill:#ffffff;fill-opacity:1;fill-rule:nonzero;stroke:none"
             id="path986" /></g><g
           id="g988"
           transform="translate(81.0549,555.684)"><path
             d="m 0,0 c -0.259,-2.91 0.592,-4.101 0.592,-4.101 0,0 0.027,3.204 2.842,3.446 2.053,0.177 4.506,0.554 6.684,1.174 3.427,0.898 5.648,1.994 9.616,0.667 l 1.374,1.864 c -0.634,0.427 -1.766,0.765 -2.443,0.959 -0.242,2.837 -1.033,4.034 -1.033,4.034 0,0 -0.289,-3.425 -2.512,-4.009 C 12.49,3.344 10.149,2.723 8.149,2.185 2.04,0.589 -1.624,1.758 -0.946,6.736 L -3.103,7.457 C -3.744,3.245 -2.029,1.078 0,0"
             style="fill:#ffffff;fill-opacity:1;fill-rule:nonzero;stroke:none"
             id="path990" /></g><g
           id="g992"
           transform="translate(97.0671,550.4109)"><path
             d="m 0,0 c 1.501,-2.508 2.889,-2.97 2.889,-2.97 0,0 -1.86,2.607 0.275,4.458 1.556,1.35 3.319,3.097 4.717,4.878 2.245,2.742 3.397,4.934 7.386,6.192 l 0.017,2.315 c -0.764,-0.027 -1.878,-0.418 -2.541,-0.659 -1.862,2.152 -3.205,2.655 -3.205,2.655 0,0 1.779,-2.94 0.324,-4.718 C 8.14,10.046 6.61,8.168 5.309,6.557 1.305,1.675 -2.347,0.467 -4.725,4.894 L -6.893,4.208 C -4.936,0.424 -2.275,-0.321 0,0"
             style="fill:#ffffff;fill-opacity:1;fill-rule:nonzero;stroke:none"
             id="path994" /></g><g
           id="g996"
           transform="translate(113.1217,555.556)"><path
             d="m 0,0 c 2.687,-1.146 4.083,-0.705 4.083,-0.705 0,0 -3.038,1.016 -2.398,3.768 0.465,2.007 0.864,4.457 0.948,6.72 0.205,3.537 -0.152,5.989 2.336,9.351 L 3.622,21.016 C 3.02,20.546 2.348,19.574 1.954,18.99 c -2.772,0.647 -4.155,0.264 -4.155,0.264 0,0 3.169,-1.333 3.037,-3.628 C 0.679,12.912 0.546,10.494 0.44,8.426 0.071,2.122 -2.174,-1.002 -6.698,1.182 L -8.051,-0.646 C -4.244,-2.558 -1.653,-1.597 0,0"
             style="fill:#ffffff;fill-opacity:1;fill-rule:nonzero;stroke:none"
             id="path998" /></g><g
           id="g1000"
           transform="translate(123.0852,569.1548)"><path
             d="m 0,0 c 2.848,0.653 3.717,1.83 3.717,1.83 0,0 -3.055,-0.964 -4.156,1.638 -0.802,1.899 -1.918,4.115 -3.181,5.995 -1.914,2.981 -3.642,4.756 -3.606,8.939 l -2.197,0.73 c -0.211,-0.734 -0.183,-1.915 -0.159,-2.619 -2.622,-1.107 -3.516,-2.229 -3.516,-2.229 0,0 3.347,0.784 4.589,-1.15 1.469,-2.287 2.783,-4.322 3.912,-6.059 3.406,-5.317 3.427,-9.163 -1.517,-10.056 L -6.133,-5.255 C -1.929,-4.564 -0.398,-2.263 0,0"
             style="fill:#ffffff;fill-opacity:1;fill-rule:nonzero;stroke:none"
             id="path1002" /></g><g
           id="g1004"
           transform="translate(123.1525,586.0136)"><path
             d="m 0,0 c 1.921,2.202 1.932,3.665 1.932,3.665 0,0 -1.906,-2.575 -4.325,-1.116 -1.765,1.063 -3.971,2.199 -6.098,2.978 -3.301,1.288 -5.742,1.707 -8.172,5.112 l -2.205,-0.7 c 0.261,-0.717 0.977,-1.657 1.411,-2.212 -1.471,-2.437 -1.535,-3.869 -1.535,-3.869 0,0 2.246,2.6 4.388,1.766 2.533,-0.987 4.793,-1.862 6.727,-2.602 5.881,-2.299 8.158,-5.399 4.683,-9.027 l 1.321,-1.851 C 1.121,-4.826 1.007,-2.065 0,0"
             style="fill:#ffffff;fill-opacity:1;fill-rule:nonzero;stroke:none"
             id="path1006" /></g><g
           id="g1008"
           transform="translate(113.2973,599.6924)"><path
             d="m 0,0 c 0.26,2.909 -0.592,4.1 -0.592,4.1 0,0 -0.027,-3.203 -2.842,-3.445 -2.053,-0.177 -4.506,-0.555 -6.684,-1.174 -3.427,-0.898 -5.649,-1.995 -9.615,-0.668 l -1.374,-1.863 c 0.633,-0.427 1.765,-0.766 2.442,-0.96 0.242,-2.836 1.033,-4.033 1.033,-4.033 0,0 0.289,3.425 2.512,4.008 2.63,0.691 4.971,1.311 6.971,1.849 6.11,1.597 9.773,0.428 9.095,-4.551 l 2.157,-0.72 C 3.744,-3.246 2.03,-1.079 0,0"
             style="fill:#ffffff;fill-opacity:1;fill-rule:nonzero;stroke:none"
             id="path1010" /></g><g
           id="g1012"
           transform="translate(97.2849,604.9657)"><path
             d="m 0,0 c -1.501,2.506 -2.889,2.97 -2.889,2.97 0,0 1.86,-2.608 -0.274,-4.459 -1.557,-1.35 -3.32,-3.097 -4.718,-4.878 -2.244,-2.742 -3.397,-4.934 -7.386,-6.192 l -0.016,-2.315 c 0.763,0.027 1.878,0.419 2.54,0.659 1.863,-2.152 3.206,-2.655 3.206,-2.655 0,0 -1.779,2.94 -0.324,4.719 1.722,2.104 3.251,3.982 4.552,5.592 4.005,4.884 7.656,6.091 10.034,1.665 L 6.894,-4.21 C 4.937,-0.425 2.276,0.32 0,0"
             style="fill:#ffffff;fill-opacity:1;fill-rule:nonzero;stroke:none"
             id="path1014" /></g><g
           id="g1016"
           transform="translate(97.3506,574.194)"><path
             d="m 0,0 c 0,3.454 -3.502,3.535 -3.502,3.535 0,0 3.486,0.016 3.518,3.454 C -0.016,3.535 3.438,3.502 3.518,3.486 3.6,3.47 0.016,3.47 0,0 m 9.733,3.635 c 0,0 -1.192,-2.526 -1.429,-1.589 C 7.734,4.3 6.338,6.503 1.41,8.158 2.358,8.525 3.557,8.688 5.04,8.37 9.034,7.515 8.935,3.356 8.954,3.354 c 0,0 1.259,1.508 0.807,4.025 -0.788,4.393 -6.758,5.13 -6.758,5.13 0,0 2.033,-1.915 1.07,-1.85 -2.321,0.155 -4.848,-0.492 -7.944,-4.671 -0.058,1.016 0.158,2.208 0.92,3.521 2.048,3.534 5.973,2.154 5.98,2.173 0,0 -1.045,1.662 -3.578,2.01 -4.421,0.608 -6.967,-4.841 -6.967,-4.841 0,0 2.448,1.342 2.09,0.445 -0.865,-2.16 -1.03,-4.762 1.987,-8.998 -0.984,0.26 -2.051,0.833 -3.065,1.963 -2.727,3.039 -0.202,6.346 -0.218,6.359 0,0 -1.904,-0.48 -3.018,-2.782 -1.944,-4.017 2.452,-8.122 2.452,-8.122 0,0 -0.519,2.743 0.222,2.125 1.787,-1.489 4.21,-2.451 9.17,-0.892 -0.551,-0.855 -1.424,-1.692 -2.811,-2.306 -3.734,-1.656 -6.099,1.768 -6.116,1.758 0,0 -0.132,-1.96 1.713,-3.731 3.22,-3.091 8.483,-0.178 8.483,-0.178 0,0 -2.77,0.354 -1.954,0.868 1.969,1.239 3.633,3.247 3.683,8.446 C 5.745,3.017 6.271,1.928 6.427,0.419 6.847,-3.644 2.86,-4.835 2.866,-4.854 c 0,0 1.822,-0.731 4.076,0.476 3.935,2.107 2.791,8.013 2.791,8.013"
             style="fill:#ffffff;fill-opacity:1;fill-rule:nonzero;stroke:none"
             id="path1018" /></g></g></g><path
       style="fill:#971e1f;fill-opacity:1;stroke-width:0.0467955"
       d="m 93.603596,629.70887 c 0.80953,2.46135 1.29092,3.98665 1.27258,4.03221 -0.0121,0.0301 -0.86363,0.66541 -1.89226,1.4118 l -1.870217,1.35707 2.352927,0.0121 2.35292,0.0121 0.16472,0.50262 c 0.0906,0.27645 0.42182,1.2923 0.73604,2.25746 0.31422,0.96516 0.58229,1.72324 0.59572,1.68464 0.0134,-0.0386 0.34259,-1.04939 0.73149,-2.24619 l 0.70708,-2.17598 2.357034,-0.0234 2.35703,-0.0234 -1.86712,-1.35213 c -1.02691,-0.74367 -1.882284,-1.3653 -1.900804,-1.3814 -0.0185,-0.0161 0.290933,-1.02849 0.687704,-2.24976 0.39676,-1.22127 0.71335,-2.22852 0.70353,-2.23835 -0.01,-0.01 -0.86251,0.59686 -1.894854,1.34818 -1.03233,0.75133 -1.90295,1.35608 -1.93471,1.34389 -0.0457,-0.0175 -3.54026,-2.53581 -3.76144,-2.71059 -0.0311,-0.0245 0.0152,0.17305 0.10263,0.43907 z"
       id="path353645" /><path
       style="fill:#971e1f;fill-opacity:1;stroke-width:0.0467955"
       d="m 112.4394,623.40581 c 0,0.0211 0.98417,3.06859 1.37787,4.26654 l 0.0637,0.19392 -1.88992,1.37373 -1.88991,1.37372 2.34411,0.0234 2.34411,0.0234 0.73192,2.25607 0.73192,2.25609 0.24305,-0.73523 c 0.13369,-0.40437 0.46672,-1.42468 0.74008,-2.26735 l 0.49701,-1.53212 2.33914,-0.0121 2.33913,-0.0121 -1.89317,-1.3755 -1.89317,-1.37549 0.0617,-0.17479 c 0.19868,-0.56313 1.38526,-4.26775 1.37139,-4.28162 -0.009,-0.009 -0.86764,0.6022 -1.90768,1.35865 l -1.89097,1.37534 -0.21382,-0.15535 c -3.67958,-2.67339 -3.6065,-2.62113 -3.6065,-2.57915 z"
       id="path353643" /><path
       style="fill:#971e1f;fill-opacity:1;stroke-width:0.0467955"
       d="m 74.582779,623.65289 c 1.137339,3.46225 1.360734,4.19191 1.301327,4.25039 -0.03421,0.0336 -0.891508,0.66255 -1.905123,1.39752 l -1.842948,1.33631 h 2.347001 2.346996 l 0.04599,0.1053 c 0.0253,0.0579 0.353384,1.05289 0.729076,2.21108 0.375691,1.15819 0.694167,2.12395 0.707725,2.14614 0.01358,0.0222 0.347549,-0.95246 0.742202,-2.16589 0.394658,-1.21343 0.730125,-2.22657 0.745489,-2.25143 0.01737,-0.0281 0.915068,-0.0452 2.371879,-0.0452 h 2.343953 l -1.84366,-1.337 c -1.014018,-0.73537 -1.871048,-1.36365 -1.904517,-1.3962 -0.04972,-0.0484 0.07098,-0.46412 0.661473,-2.27792 0.397281,-1.22032 0.716742,-2.225 0.70991,-2.23264 -0.0068,-0.008 -0.867959,0.60745 -1.91361,1.36685 l -1.901189,1.38073 -1.894381,-1.37855 c -1.041915,-0.7582 -1.903748,-1.37854 -1.91519,-1.37854 -0.01142,0 0.01894,0.12108 0.06758,0.26907 z"
       id="path353641" /><circle
       style="fill:none;fill-opacity:1;stroke:#ffffff;stroke-width:2.283;stroke-dasharray:none"
       id="path354091-3"
       cx="97.178749"
       cy="-574.7027"
       r="43.624874"
       transform="scale(1,-1)" /></g></svg>
